<svg version="1.1" viewBox="0.0 0.0 1920.0 1920.0" fill="none" stroke="none" stroke-linecap="square" stroke-miterlimit="10" xmlns:xlink="http://www.w3.org/1999/xlink" xmlns="http://www.w3.org/2000/svg"><clipPath id="p.0"><path d="m0 0l1920.0 0l0 1920.0l-1920.0 0l0 -1920.0z" clip-rule="nonzero"/></clipPath><g clip-path="url(#p.0)"><path fill="#000000" fill-opacity="0.0" d="m0 0l1920.0 0l0 1920.0l-1920.0 0z" fill-rule="evenodd"/><path fill="#5050ff" d="m64.0 960.0l0 0c0 -494.84714 401.15286 -896.0 896.0 -896.0c494.84717 0 896.0 401.15286 896.0 896.0l-448.0 0c0 -247.42358 -200.57642 -448.0 -448.0 -448.0c-247.42358 0 -448.0 200.57642 -448.0 448.0z" fill-rule="evenodd"/><path stroke="#000000" stroke-width="1.0" stroke-linejoin="round" stroke-linecap="butt" d="m64.0 960.0l0 0c0 -494.84714 401.15286 -896.0 896.0 -896.0c494.84717 0 896.0 401.15286 896.0 896.0l-448.0 0c0 -247.42358 -200.57642 -448.0 -448.0 -448.0c-247.42358 0 -448.0 200.57642 -448.0 448.0z" fill-rule="evenodd"/><path fill="#ffff50" d="m64.0 960.0l0 0c0 494.84717 401.15286 896.0 896.0 896.0c494.84717 0 896.0 -401.15283 896.0 -896.0l-448.0 0c0 247.42358 -200.57642 448.0 -448.0 448.0c-247.42358 0 -448.0 -200.57642 -448.0 -448.0z" fill-rule="evenodd"/><path stroke="#000000" stroke-width="1.0" stroke-linejoin="round" stroke-linecap="butt" d="m64.0 960.0l0 0c0 494.84717 401.15286 896.0 896.0 896.0c494.84717 0 896.0 -401.15283 896.0 -896.0l-448.0 0c0 247.42358 -200.57642 448.0 -448.0 448.0c-247.42358 0 -448.0 -200.57642 -448.0 -448.0z" fill-rule="evenodd"/><path fill="#50ff50" d="m1407.9998 960.5213l0 0c-0.28796387 247.41498 -201.08447 447.75433 -448.4994 447.47845c-247.41498 -0.27600098 -447.7641 -201.06274 -447.50012 -448.47778l447.99976 0.47802734z" fill-rule="evenodd"/><path stroke="#000000" stroke-width="1.0" stroke-linejoin="round" stroke-linecap="butt" d="m1407.9998 960.5213l0 0c-0.28796387 247.41498 -201.08447 447.75433 -448.4994 447.47845c-247.41498 -0.27600098 -447.7641 -201.06274 -447.50012 -448.47778l447.99976 0.47802734z" fill-rule="evenodd"/><path fill="#ff5050" d="m1407.9998 959.4787l0 0c-0.28796387 -247.41492 -201.08447 -447.75436 -448.4994 -447.4784c-247.41498 0.2758789 -447.7641 201.06274 -447.50012 448.47772l447.99976 -0.47802734z" fill-rule="evenodd"/><path stroke="#000000" stroke-width="1.0" stroke-linejoin="round" stroke-linecap="butt" d="m1407.9998 959.4787l0 0c-0.28796387 -247.41492 -201.08447 -447.75436 -448.4994 -447.4784c-247.41498 0.2758789 -447.7641 201.06274 -447.50012 448.47772l447.99976 -0.47802734z" fill-rule="evenodd"/></g></svg>